<svg xmlns="http://www.w3.org/2000/svg" xmlns:xlink="http://www.w3.org/1999/xlink" width="500" zoomAndPan="magnify" viewBox="0 0 375 374.999991" height="500" preserveAspectRatio="xMidYMid meet" version="1.0"><defs><clipPath id="c844fa79a3"><path d="M 273 109.375 L 316 109.375 L 316 226 L 273 226 Z M 273 109.375 " clip-rule="nonzero"/></clipPath><clipPath id="77719fd1c3"><path d="M 0 109.375 L 157 109.375 L 157 265.375 L 0 265.375 Z M 0 109.375 " clip-rule="nonzero"/></clipPath></defs><path fill="#413000" d="M 224.652344 162.472656 C 216.449219 162.472656 210.34375 166.496094 210.34375 176.171875 C 210.34375 183.464844 214.367188 188.527344 224.210938 188.527344 C 232.554688 188.527344 238.21875 183.617188 238.21875 175.871094 C 238.21875 167.09375 233.148438 162.472656 224.652344 162.472656 Z M 208.25 230.804688 C 206.308594 233.183594 204.375 235.710938 204.375 238.695312 C 204.375 244.644531 211.972656 246.433594 222.410156 246.433594 C 231.058594 246.433594 242.839844 245.828125 242.839844 237.800781 C 242.839844 233.03125 237.171875 232.734375 230.011719 232.289062 Z M 252.378906 162.921875 C 255.058594 166.347656 257.894531 171.113281 257.894531 177.960938 C 257.894531 194.480469 244.921875 204.15625 226.144531 204.15625 C 221.367188 204.15625 217.042969 203.5625 214.363281 202.820312 L 209.441406 210.707031 L 224.050781 211.597656 C 249.84375 213.242188 265.046875 213.984375 265.046875 233.777344 C 265.046875 250.898438 249.992188 260.570312 224.050781 260.570312 C 197.066406 260.570312 186.777344 253.722656 186.777344 241.964844 C 186.777344 235.261719 189.761719 231.699219 194.980469 226.777344 C 190.058594 224.699219 188.417969 220.980469 188.417969 216.960938 C 188.417969 213.683594 190.058594 210.707031 192.746094 207.878906 C 195.429688 205.050781 198.410156 202.21875 201.988281 198.945312 C 194.683594 195.375 189.164062 187.632812 189.164062 176.617188 C 189.164062 159.5 200.496094 147.746094 223.304688 147.746094 C 229.714844 147.746094 233.59375 148.335938 237.023438 149.234375 L 266.097656 149.234375 L 266.097656 161.882812 L 252.378906 162.925781 " fill-opacity="1" fill-rule="nonzero"/><g clip-path="url(#c844fa79a3)"><path fill="#413000" d="M 292.339844 135.875 C 283.839844 135.875 278.921875 130.957031 278.921875 122.46875 C 278.921875 113.992188 283.839844 109.375 292.339844 109.375 C 300.988281 109.375 305.90625 113.992188 305.90625 122.46875 C 305.90625 130.957031 300.988281 135.875 292.339844 135.875 Z M 273.105469 225.328125 L 273.105469 213.574219 L 280.710938 212.535156 C 282.796875 212.234375 283.09375 211.789062 283.09375 209.550781 L 283.09375 165.789062 C 283.09375 164.15625 282.648438 163.109375 281.152344 162.667969 L 273.105469 159.835938 L 274.742188 147.78125 L 305.609375 147.78125 L 305.609375 209.554688 C 305.609375 211.9375 305.75 212.234375 307.992188 212.535156 L 315.597656 213.574219 L 315.597656 225.328125 L 273.101562 225.328125 " fill-opacity="1" fill-rule="nonzero"/></g><path fill="#413000" d="M 374.554688 219.558594 C 368.140625 222.679688 358.75 225.507812 350.246094 225.507812 C 332.507812 225.507812 325.800781 218.371094 325.800781 201.542969 L 325.800781 162.546875 C 325.800781 161.65625 325.800781 161.058594 324.601562 161.058594 L 314.167969 161.058594 L 314.167969 147.8125 C 327.292969 146.316406 332.507812 139.765625 334.148438 123.542969 L 348.3125 123.542969 L 348.3125 144.6875 C 348.3125 145.726562 348.3125 146.175781 349.503906 146.175781 L 370.527344 146.175781 L 370.527344 161.058594 L 348.3125 161.058594 L 348.3125 196.632812 C 348.3125 205.414062 350.402344 208.835938 358.449219 208.835938 C 362.628906 208.835938 366.945312 207.796875 370.527344 206.457031 L 374.554688 219.558594 " fill-opacity="1" fill-rule="nonzero"/><g clip-path="url(#77719fd1c3)"><path fill="#f05133" d="M 153.648438 180.496094 L 85.476562 112.4375 C 81.554688 108.515625 75.1875 108.515625 71.257812 112.4375 L 57.105469 126.570312 L 75.058594 144.5 C 79.234375 143.09375 84.019531 144.035156 87.34375 147.355469 C 90.6875 150.699219 91.625 155.515625 90.179688 159.699219 L 107.488281 176.976562 C 111.671875 175.535156 116.503906 176.46875 119.847656 179.8125 C 124.523438 184.476562 124.523438 192.035156 119.847656 196.703125 C 115.171875 201.371094 107.601562 201.371094 102.921875 196.703125 C 99.410156 193.191406 98.539062 188.035156 100.320312 183.710938 L 84.179688 167.597656 L 84.179688 210.003906 C 85.316406 210.566406 86.394531 211.316406 87.34375 212.261719 C 92.015625 216.925781 92.015625 224.484375 87.34375 229.15625 C 82.667969 233.820312 75.09375 233.820312 70.425781 229.15625 C 65.75 224.484375 65.75 216.925781 70.425781 212.261719 C 71.578125 211.109375 72.917969 210.238281 74.34375 209.65625 L 74.34375 166.855469 C 72.914062 166.273438 71.582031 165.410156 70.425781 164.25 C 66.882812 160.71875 66.03125 155.53125 67.847656 151.191406 L 50.144531 133.515625 L 3.40625 180.179688 C -0.523438 184.105469 -0.523438 190.460938 3.40625 194.382812 L 71.574219 262.4375 C 75.5 266.359375 81.863281 266.359375 85.792969 262.4375 L 153.648438 194.703125 C 157.574219 190.78125 157.574219 184.421875 153.648438 180.5 " fill-opacity="1" fill-rule="nonzero"/></g></svg>