<svg xmlns="http://www.w3.org/2000/svg" xmlns:xlink="http://www.w3.org/1999/xlink" width="500" zoomAndPan="magnify" viewBox="0 0 375 374.999991" height="500" preserveAspectRatio="xMidYMid meet" version="1.0"><defs><clipPath id="222251fbbb"><path d="M 87 0 L 279 0 L 279 368.851562 L 87 368.851562 Z M 87 0 " clip-rule="nonzero"/></clipPath></defs><path fill="#4e7896" d="M 154.445312 192.722656 C 154.445312 192.722656 144.5625 198.734375 161.316406 200.453125 C 181.5 203.03125 192.238281 202.601562 214.574219 198.304688 C 214.574219 198.304688 220.585938 202.171875 228.746094 205.179688 C 178.496094 226.652344 114.925781 203.890625 154.445312 192.722656 Z M 148 164.804688 C 148 164.804688 137.265625 172.964844 154.015625 174.683594 C 175.917969 176.832031 193.097656 177.261719 222.734375 171.246094 C 222.734375 171.246094 226.597656 175.542969 233.039062 177.6875 C 172.484375 195.730469 104.617188 179.40625 148 164.804688 Z M 266.542969 213.761719 C 266.542969 213.761719 273.84375 219.777344 258.382812 224.5 C 229.605469 233.09375 137.699219 235.667969 111.925781 224.5 C 102.90625 220.636719 120.085938 215.050781 125.667969 214.191406 C 131.25 212.90625 134.257812 212.90625 134.257812 212.90625 C 124.378906 206.03125 68.542969 227.078125 105.910156 233.09375 C 208.558594 249.84375 293.167969 225.789062 266.542969 213.761719 Z M 159.171875 135.59375 C 159.171875 135.59375 112.355469 146.757812 142.421875 150.625 C 155.308594 152.34375 180.644531 151.914062 204.269531 150.195312 C 223.59375 148.476562 242.921875 145.039062 242.921875 145.039062 C 242.921875 145.039062 236.050781 148.046875 231.328125 151.054688 C 183.652344 163.507812 92.171875 157.925781 118.367188 145.039062 C 140.703125 134.300781 159.167969 135.589844 159.167969 135.589844 Z M 242.921875 182.410156 C 291.023438 157.496094 268.691406 133.445312 253.230469 136.449219 C 249.363281 137.308594 247.644531 138.167969 247.644531 138.167969 C 247.644531 138.167969 248.933594 135.589844 251.941406 134.730469 C 282.433594 123.996094 306.488281 166.945312 242.0625 183.695312 C 242.0625 183.695312 242.492188 183.265625 242.921875 182.410156 Z M 163.894531 250.273438 C 210.277344 253.277344 281.136719 248.554688 282.867188 226.648438 C 282.867188 226.648438 279.433594 235.238281 244.644531 241.683594 C 205.128906 248.984375 156.167969 248.125 127.398438 243.398438 C 127.398438 243.398438 133.410156 248.554688 163.90625 250.273438 Z M 163.894531 250.273438 " fill-opacity="1" fill-rule="nonzero"/><g clip-path="url(#222251fbbb)"><path fill="#f58219" d="M 213.710938 -6.148438 C 213.710938 -6.148438 240.339844 20.910156 188.371094 61.714844 C 146.710938 94.789062 178.921875 113.6875 188.371094 135.164062 C 163.890625 113.257812 146.28125 93.929688 158.308594 75.890625 C 175.917969 49.261719 224.457031 36.382812 213.714844 -6.148438 Z M 199.976562 117.125 C 212.433594 131.300781 196.542969 144.1875 196.542969 144.1875 C 196.542969 144.1875 228.324219 127.863281 213.722656 107.675781 C 200.40625 88.351562 190.097656 78.898438 245.933594 46.695312 C 245.933594 46.695312 157.886719 68.601562 199.976562 117.136719 Z M 168.1875 347.769531 L 168.1875 305.675781 C 168.1875 294.9375 162.175781 287.636719 147.144531 287.636719 C 138.554688 287.636719 131.253906 289.785156 124.808594 292.351562 L 126.957031 300.085938 C 131.675781 298.367188 137.695312 296.648438 144.136719 296.648438 C 152.296875 296.648438 156.164062 300.085938 156.164062 306.957031 L 156.164062 312.539062 L 151.867188 312.539062 C 131.253906 312.539062 121.804688 320.273438 121.804688 332.726562 C 121.804688 343.035156 128.246094 349.050781 139.84375 349.050781 C 147.144531 349.050781 152.726562 345.613281 157.882812 341.316406 L 158.742188 347.761719 L 168.191406 347.761719 Z M 156.164062 334.023438 C 151.867188 337.890625 147.144531 340.039062 142.847656 340.039062 C 137.265625 340.039062 133.828125 336.601562 133.828125 330.589844 C 133.828125 324.574219 137.265625 320.28125 151.007812 320.28125 L 156.164062 320.28125 Z M 208.5625 347.769531 L 193.53125 347.769531 L 175.492188 288.925781 L 188.378906 288.925781 L 199.542969 325.003906 L 202.121094 335.742188 C 207.703125 320.28125 212 304.386719 213.71875 288.925781 L 226.601562 288.925781 C 223.164062 308.253906 217.152344 329.300781 208.566406 347.769531 Z M 278.140625 347.769531 L 278.140625 305.675781 C 278.140625 294.9375 272.125 287.636719 257.09375 287.636719 C 248.503906 287.636719 241.203125 289.785156 234.757812 292.351562 L 236.476562 300.085938 C 241.632812 298.367188 247.644531 296.648438 254.085938 296.648438 C 262.25 296.648438 266.113281 300.085938 266.113281 306.957031 L 266.113281 312.539062 L 261.820312 312.539062 C 241.203125 312.539062 231.753906 320.273438 231.753906 332.726562 C 231.753906 343.035156 237.765625 349.050781 249.363281 349.050781 C 257.09375 349.050781 262.679688 345.613281 267.832031 341.316406 L 268.691406 347.761719 L 278.140625 347.761719 Z M 266.113281 334.023438 C 261.820312 337.890625 257.09375 340.039062 252.796875 340.039062 C 247.214844 340.039062 243.78125 336.601562 243.78125 330.589844 C 243.78125 324.574219 247.214844 320.28125 260.960938 320.28125 L 266.113281 320.28125 Z M 108.492188 357.648438 C 105.054688 362.804688 99.902344 366.667969 93.460938 368.816406 L 87.871094 361.949219 C 92.167969 359.371094 96.464844 355.503906 98.179688 352.070312 C 99.898438 349.0625 100.328125 344.765625 100.328125 334.886719 L 100.328125 267.882812 L 113.214844 267.882812 L 113.214844 334.03125 C 113.214844 347.34375 111.925781 352.5 108.496094 357.652344 Z M 108.492188 357.648438 " fill-opacity="1" fill-rule="nonzero"/></g></svg>