<svg xmlns="http://www.w3.org/2000/svg" xmlns:xlink="http://www.w3.org/1999/xlink" width="500" zoomAndPan="magnify" viewBox="0 0 375 374.999991" height="500" preserveAspectRatio="xMidYMid meet" version="1.0"><defs><clipPath id="6ed8a2362f"><path d="M 100 0 L 274.75 0 L 274.75 375 L 100 375 Z M 100 0 " clip-rule="nonzero"/></clipPath></defs><g clip-path="url(#6ed8a2362f)"><path fill="#00ed64" d="M 219.847656 41.816406 C 204.121094 23.296875 190.578125 4.191406 187.957031 0.398438 C 187.667969 0.109375 187.230469 0.109375 186.9375 0.398438 C 184.171875 4.335938 170.628906 23.296875 154.902344 41.960938 C 20.050781 214.1875 176.160156 330.414062 176.160156 330.414062 L 177.472656 331.289062 C 178.636719 349.226562 181.550781 375.039062 181.550781 375.039062 L 193.199219 375.039062 C 193.199219 375.039062 196.113281 349.371094 197.277344 331.289062 L 198.589844 330.269531 C 198.589844 330.269531 354.699219 214.1875 219.847656 41.816406 Z M 187.375 327.789062 C 187.375 327.789062 180.386719 321.808594 178.492188 318.746094 L 178.492188 318.457031 L 186.9375 130.917969 C 186.9375 130.335938 187.8125 130.335938 187.8125 130.917969 L 196.113281 318.308594 L 196.113281 318.601562 C 194.21875 321.808594 187.375 327.789062 187.375 327.789062 Z M 187.375 327.789062 " fill-opacity="1" fill-rule="nonzero"/></g></svg>