<svg xmlns="http://www.w3.org/2000/svg" xmlns:xlink="http://www.w3.org/1999/xlink" width="500" zoomAndPan="magnify" viewBox="0 0 375 374.999991" height="500" preserveAspectRatio="xMidYMid meet" version="1.0"><defs><clipPath id="ea5041a9d1"><path d="M 144 209 L 227 209 L 227 302.273438 L 144 302.273438 Z M 144 209 " clip-rule="nonzero"/></clipPath><clipPath id="111d7db2df"><path d="M 0 72.777344 L 375 72.777344 L 375 218 L 0 218 Z M 0 72.777344 " clip-rule="nonzero"/></clipPath><clipPath id="4d80270b3b"><path d="M 98.164062 125 L 178.617188 125 L 178.617188 216.765625 L 98.164062 216.765625 Z M 98.164062 125 " clip-rule="nonzero"/></clipPath><clipPath id="fba8224ccc"><path d="M 136.296875 125.792969 L 100.617188 146.390625 C 99.28125 147.164062 98.460938 148.585938 98.460938 150.125 L 98.460938 191.351562 C 98.460938 192.890625 99.28125 194.3125 100.617188 195.082031 L 136.300781 215.699219 C 137.632812 216.464844 139.277344 216.464844 140.609375 215.699219 L 176.285156 195.082031 C 177.617188 194.3125 178.4375 192.890625 178.4375 191.351562 L 178.4375 150.125 C 178.4375 148.585938 177.617188 147.164062 176.277344 146.390625 L 140.605469 125.792969 C 139.9375 125.410156 139.191406 125.21875 138.449219 125.21875 C 137.703125 125.21875 136.957031 125.410156 136.289062 125.792969 " clip-rule="nonzero"/></clipPath><clipPath id="0b1b1fb4a5"><path d="M 214.492188 142.894531 L 113.957031 93.601562 L 62.40625 198.789062 L 162.941406 248.082031 Z M 214.492188 142.894531 " clip-rule="nonzero"/></clipPath><linearGradient x1="-0.347234" gradientTransform="matrix(-32.235999, 65.777983, -65.76119, -32.244235, 152.975038, 141.061857)" y1="0" x2="1.251868" gradientUnits="userSpaceOnUse" y2="0" id="4224a51429"><stop stop-opacity="1" stop-color="rgb(24.299622%, 52.49939%, 23.899841%)" offset="0"/><stop stop-opacity="1" stop-color="rgb(24.299622%, 52.49939%, 23.899841%)" offset="0.25"/><stop stop-opacity="1" stop-color="rgb(24.299622%, 52.49939%, 23.899841%)" offset="0.28125"/><stop stop-opacity="1" stop-color="rgb(24.299622%, 52.49939%, 23.899841%)" offset="0.296875"/><stop stop-opacity="1" stop-color="rgb(24.415588%, 52.565002%, 23.991394%)" offset="0.304687"/><stop stop-opacity="1" stop-color="rgb(24.708557%, 52.731323%, 24.221802%)" offset="0.3125"/><stop stop-opacity="1" stop-color="rgb(25.059509%, 52.929688%, 24.499512%)" offset="0.320312"/><stop stop-opacity="1" stop-color="rgb(25.411987%, 53.129578%, 24.777222%)" offset="0.328125"/><stop stop-opacity="1" stop-color="rgb(25.762939%, 53.327942%, 25.053406%)" offset="0.335937"/><stop stop-opacity="1" stop-color="rgb(26.113892%, 53.527832%, 25.331116%)" offset="0.34375"/><stop stop-opacity="1" stop-color="rgb(26.46637%, 53.726196%, 25.608826%)" offset="0.351562"/><stop stop-opacity="1" stop-color="rgb(26.817322%, 53.926086%, 25.886536%)" offset="0.359375"/><stop stop-opacity="1" stop-color="rgb(27.1698%, 54.125977%, 26.16272%)" offset="0.367187"/><stop stop-opacity="1" stop-color="rgb(27.520752%, 54.324341%, 26.44043%)" offset="0.375"/><stop stop-opacity="1" stop-color="rgb(27.871704%, 54.524231%, 26.71814%)" offset="0.382812"/><stop stop-opacity="1" stop-color="rgb(28.224182%, 54.722595%, 26.99585%)" offset="0.390625"/><stop stop-opacity="1" stop-color="rgb(28.575134%, 54.922485%, 27.27356%)" offset="0.398437"/><stop stop-opacity="1" stop-color="rgb(28.927612%, 55.12085%, 27.549744%)" offset="0.40625"/><stop stop-opacity="1" stop-color="rgb(29.278564%, 55.32074%, 27.827454%)" offset="0.414062"/><stop stop-opacity="1" stop-color="rgb(29.629517%, 55.52063%, 28.105164%)" offset="0.421875"/><stop stop-opacity="1" stop-color="rgb(29.981995%, 55.718994%, 28.382874%)" offset="0.429687"/><stop stop-opacity="1" stop-color="rgb(30.332947%, 55.918884%, 28.659058%)" offset="0.4375"/><stop stop-opacity="1" stop-color="rgb(30.685425%, 56.117249%, 28.936768%)" offset="0.445312"/><stop stop-opacity="1" stop-color="rgb(31.036377%, 56.317139%, 29.214478%)" offset="0.453125"/><stop stop-opacity="1" stop-color="rgb(31.388855%, 56.515503%, 29.492188%)" offset="0.460937"/><stop stop-opacity="1" stop-color="rgb(31.739807%, 56.715393%, 29.768372%)" offset="0.46875"/><stop stop-opacity="1" stop-color="rgb(32.090759%, 56.915283%, 30.046082%)" offset="0.476562"/><stop stop-opacity="1" stop-color="rgb(32.443237%, 57.113647%, 30.323792%)" offset="0.484375"/><stop stop-opacity="1" stop-color="rgb(32.794189%, 57.313538%, 30.601501%)" offset="0.492187"/><stop stop-opacity="1" stop-color="rgb(33.135986%, 57.514954%, 30.865479%)" offset="0.5"/><stop stop-opacity="1" stop-color="rgb(33.328247%, 57.749939%, 30.941772%)" offset="0.507812"/><stop stop-opacity="1" stop-color="rgb(33.380127%, 58.015442%, 30.839539%)" offset="0.515625"/><stop stop-opacity="1" stop-color="rgb(33.432007%, 58.280945%, 30.738831%)" offset="0.523438"/><stop stop-opacity="1" stop-color="rgb(33.485413%, 58.546448%, 30.636597%)" offset="0.53125"/><stop stop-opacity="1" stop-color="rgb(33.537292%, 58.811951%, 30.534363%)" offset="0.539062"/><stop stop-opacity="1" stop-color="rgb(33.589172%, 59.077454%, 30.433655%)" offset="0.546875"/><stop stop-opacity="1" stop-color="rgb(33.641052%, 59.342957%, 30.331421%)" offset="0.554688"/><stop stop-opacity="1" stop-color="rgb(33.692932%, 59.608459%, 30.230713%)" offset="0.5625"/><stop stop-opacity="1" stop-color="rgb(33.744812%, 59.873962%, 30.128479%)" offset="0.570312"/><stop stop-opacity="1" stop-color="rgb(33.796692%, 60.139465%, 30.027771%)" offset="0.578125"/><stop stop-opacity="1" stop-color="rgb(33.850098%, 60.406494%, 29.925537%)" offset="0.585937"/><stop stop-opacity="1" stop-color="rgb(33.901978%, 60.671997%, 29.824829%)" offset="0.59375"/><stop stop-opacity="1" stop-color="rgb(33.953857%, 60.9375%, 29.722595%)" offset="0.601562"/><stop stop-opacity="1" stop-color="rgb(34.005737%, 61.203003%, 29.620361%)" offset="0.609375"/><stop stop-opacity="1" stop-color="rgb(34.057617%, 61.468506%, 29.519653%)" offset="0.617187"/><stop stop-opacity="1" stop-color="rgb(34.109497%, 61.734009%, 29.417419%)" offset="0.625"/><stop stop-opacity="1" stop-color="rgb(34.161377%, 61.999512%, 29.316711%)" offset="0.632812"/><stop stop-opacity="1" stop-color="rgb(34.214783%, 62.265015%, 29.214478%)" offset="0.640625"/><stop stop-opacity="1" stop-color="rgb(34.266663%, 62.530518%, 29.11377%)" offset="0.648437"/><stop stop-opacity="1" stop-color="rgb(34.318542%, 62.796021%, 29.011536%)" offset="0.65625"/><stop stop-opacity="1" stop-color="rgb(34.370422%, 63.061523%, 28.909302%)" offset="0.664062"/><stop stop-opacity="1" stop-color="rgb(34.422302%, 63.328552%, 28.808594%)" offset="0.671875"/><stop stop-opacity="1" stop-color="rgb(34.474182%, 63.594055%, 28.70636%)" offset="0.679687"/><stop stop-opacity="1" stop-color="rgb(34.526062%, 63.859558%, 28.605652%)" offset="0.6875"/><stop stop-opacity="1" stop-color="rgb(34.577942%, 64.125061%, 28.503418%)" offset="0.695312"/><stop stop-opacity="1" stop-color="rgb(34.631348%, 64.390564%, 28.40271%)" offset="0.703125"/><stop stop-opacity="1" stop-color="rgb(34.683228%, 64.656067%, 28.300476%)" offset="0.710937"/><stop stop-opacity="1" stop-color="rgb(34.735107%, 64.92157%, 28.199768%)" offset="0.71875"/><stop stop-opacity="1" stop-color="rgb(34.786987%, 65.187073%, 28.097534%)" offset="0.726562"/><stop stop-opacity="1" stop-color="rgb(34.838867%, 65.452576%, 27.9953%)" offset="0.734375"/><stop stop-opacity="1" stop-color="rgb(34.890747%, 65.718079%, 27.894592%)" offset="0.742187"/><stop stop-opacity="1" stop-color="rgb(34.942627%, 65.983582%, 27.792358%)" offset="0.75"/><stop stop-opacity="1" stop-color="rgb(34.996033%, 66.25061%, 27.69165%)" offset="0.757812"/><stop stop-opacity="1" stop-color="rgb(35.047913%, 66.516113%, 27.589417%)" offset="0.765625"/><stop stop-opacity="1" stop-color="rgb(35.099792%, 66.781616%, 27.488708%)" offset="0.773437"/><stop stop-opacity="1" stop-color="rgb(35.151672%, 67.047119%, 27.386475%)" offset="0.78125"/><stop stop-opacity="1" stop-color="rgb(35.203552%, 67.312622%, 27.284241%)" offset="0.789062"/><stop stop-opacity="1" stop-color="rgb(35.255432%, 67.578125%, 27.183533%)" offset="0.796875"/><stop stop-opacity="1" stop-color="rgb(35.290527%, 67.755127%, 27.116394%)" offset="0.8125"/><stop stop-opacity="1" stop-color="rgb(35.299683%, 67.799377%, 27.099609%)" offset="0.875"/><stop stop-opacity="1" stop-color="rgb(35.299683%, 67.799377%, 27.099609%)" offset="1"/></linearGradient><clipPath id="8ff35b6b9c"><path d="M 99.011719 125.28125 L 177.769531 125.28125 L 177.769531 216.765625 L 99.011719 216.765625 Z M 99.011719 125.28125 " clip-rule="nonzero"/></clipPath><clipPath id="2a6b1ed551"><path d="M 99.347656 193.96875 C 99.6875 194.410156 100.113281 194.792969 100.617188 195.082031 L 131.222656 212.765625 L 136.320312 215.695312 C 137.082031 216.136719 137.953125 216.324219 138.804688 216.261719 C 139.089844 216.238281 139.375 216.183594 139.652344 216.105469 L 177.28125 147.1875 C 176.996094 146.871094 176.65625 146.609375 176.28125 146.390625 L 152.917969 132.894531 L 140.570312 125.789062 C 140.21875 125.585938 139.839844 125.441406 139.453125 125.339844 Z M 99.347656 193.96875 " clip-rule="nonzero"/></clipPath><clipPath id="e7acffeb8b"><path d="M 55.878906 157.472656 L 126.867188 253.578125 L 220.75 184.195312 L 149.757812 88.09375 Z M 55.878906 157.472656 " clip-rule="nonzero"/></clipPath><linearGradient x1="-0.456148" gradientTransform="matrix(90.450453, -66.849211, 66.832144, 90.473555, 133.043946, 175.593596)" y1="0" x2="0.581849" gradientUnits="userSpaceOnUse" y2="0" id="a6dec54a81"><stop stop-opacity="1" stop-color="rgb(24.299622%, 52.49939%, 23.899841%)" offset="0"/><stop stop-opacity="1" stop-color="rgb(24.299622%, 52.49939%, 23.899841%)" offset="0.5"/><stop stop-opacity="1" stop-color="rgb(24.299622%, 52.49939%, 23.899841%)" offset="0.5625"/><stop stop-opacity="1" stop-color="rgb(24.307251%, 52.502441%, 23.904419%)" offset="0.570313"/><stop stop-opacity="1" stop-color="rgb(24.67041%, 52.69165%, 24.176025%)" offset="0.574219"/><stop stop-opacity="1" stop-color="rgb(25.027466%, 52.876282%, 24.441528%)" offset="0.578125"/><stop stop-opacity="1" stop-color="rgb(25.384521%, 53.060913%, 24.707031%)" offset="0.582031"/><stop stop-opacity="1" stop-color="rgb(25.741577%, 53.24707%, 24.972534%)" offset="0.585938"/><stop stop-opacity="1" stop-color="rgb(26.098633%, 53.431702%, 25.238037%)" offset="0.589844"/><stop stop-opacity="1" stop-color="rgb(26.455688%, 53.616333%, 25.505066%)" offset="0.59375"/><stop stop-opacity="1" stop-color="rgb(26.811218%, 53.800964%, 25.770569%)" offset="0.597656"/><stop stop-opacity="1" stop-color="rgb(27.168274%, 53.987122%, 26.036072%)" offset="0.601563"/><stop stop-opacity="1" stop-color="rgb(27.52533%, 54.171753%, 26.301575%)" offset="0.605469"/><stop stop-opacity="1" stop-color="rgb(27.882385%, 54.356384%, 26.567078%)" offset="0.609375"/><stop stop-opacity="1" stop-color="rgb(28.239441%, 54.541016%, 26.832581%)" offset="0.613281"/><stop stop-opacity="1" stop-color="rgb(28.596497%, 54.725647%, 27.098083%)" offset="0.617188"/><stop stop-opacity="1" stop-color="rgb(28.952026%, 54.910278%, 27.363586%)" offset="0.621094"/><stop stop-opacity="1" stop-color="rgb(29.309082%, 55.096436%, 27.629089%)" offset="0.625"/><stop stop-opacity="1" stop-color="rgb(29.666138%, 55.281067%, 27.894592%)" offset="0.628906"/><stop stop-opacity="1" stop-color="rgb(30.023193%, 55.465698%, 28.160095%)" offset="0.632813"/><stop stop-opacity="1" stop-color="rgb(30.378723%, 55.65033%, 28.425598%)" offset="0.636719"/><stop stop-opacity="1" stop-color="rgb(30.735779%, 55.834961%, 28.692627%)" offset="0.640625"/><stop stop-opacity="1" stop-color="rgb(31.092834%, 56.019592%, 28.95813%)" offset="0.644531"/><stop stop-opacity="1" stop-color="rgb(31.44989%, 56.20575%, 29.223633%)" offset="0.648438"/><stop stop-opacity="1" stop-color="rgb(31.806946%, 56.390381%, 29.489136%)" offset="0.652344"/><stop stop-opacity="1" stop-color="rgb(32.164001%, 56.575012%, 29.754639%)" offset="0.65625"/><stop stop-opacity="1" stop-color="rgb(32.519531%, 56.759644%, 30.020142%)" offset="0.660156"/><stop stop-opacity="1" stop-color="rgb(32.876587%, 56.944275%, 30.285645%)" offset="0.664063"/><stop stop-opacity="1" stop-color="rgb(33.233643%, 57.128906%, 30.551147%)" offset="0.667969"/><stop stop-opacity="1" stop-color="rgb(33.590698%, 57.315063%, 30.81665%)" offset="0.671875"/><stop stop-opacity="1" stop-color="rgb(33.947754%, 57.499695%, 31.082153%)" offset="0.675781"/><stop stop-opacity="1" stop-color="rgb(34.30481%, 57.684326%, 31.347656%)" offset="0.679688"/><stop stop-opacity="1" stop-color="rgb(34.660339%, 57.868958%, 31.613159%)" offset="0.683594"/><stop stop-opacity="1" stop-color="rgb(35.017395%, 58.053589%, 31.878662%)" offset="0.6875"/><stop stop-opacity="1" stop-color="rgb(35.374451%, 58.23822%, 32.144165%)" offset="0.691406"/><stop stop-opacity="1" stop-color="rgb(35.731506%, 58.424377%, 32.411194%)" offset="0.695313"/><stop stop-opacity="1" stop-color="rgb(36.087036%, 58.609009%, 32.676697%)" offset="0.699219"/><stop stop-opacity="1" stop-color="rgb(36.444092%, 58.79364%, 32.9422%)" offset="0.703125"/><stop stop-opacity="1" stop-color="rgb(36.801147%, 58.978271%, 33.207703%)" offset="0.707031"/><stop stop-opacity="1" stop-color="rgb(37.158203%, 59.162903%, 33.473206%)" offset="0.710938"/><stop stop-opacity="1" stop-color="rgb(37.515259%, 59.347534%, 33.738708%)" offset="0.714844"/><stop stop-opacity="1" stop-color="rgb(37.872314%, 59.533691%, 34.004211%)" offset="0.71875"/><stop stop-opacity="1" stop-color="rgb(38.031006%, 59.657288%, 34.109497%)" offset="0.726563"/><stop stop-opacity="1" stop-color="rgb(38.305664%, 59.890747%, 34.286499%)" offset="0.734375"/><stop stop-opacity="1" stop-color="rgb(38.536072%, 60.110474%, 34.428406%)" offset="0.742188"/><stop stop-opacity="1" stop-color="rgb(38.768005%, 60.331726%, 34.571838%)" offset="0.75"/><stop stop-opacity="1" stop-color="rgb(38.999939%, 60.551453%, 34.713745%)" offset="0.757812"/><stop stop-opacity="1" stop-color="rgb(39.231873%, 60.771179%, 34.855652%)" offset="0.765625"/><stop stop-opacity="1" stop-color="rgb(39.46228%, 60.992432%, 34.997559%)" offset="0.773438"/><stop stop-opacity="1" stop-color="rgb(39.694214%, 61.212158%, 35.140991%)" offset="0.78125"/><stop stop-opacity="1" stop-color="rgb(39.926147%, 61.433411%, 35.282898%)" offset="0.789062"/><stop stop-opacity="1" stop-color="rgb(40.158081%, 61.653137%, 35.424805%)" offset="0.796875"/><stop stop-opacity="1" stop-color="rgb(40.390015%, 61.87439%, 35.566711%)" offset="0.804688"/><stop stop-opacity="1" stop-color="rgb(40.620422%, 62.094116%, 35.710144%)" offset="0.8125"/><stop stop-opacity="1" stop-color="rgb(40.852356%, 62.315369%, 35.852051%)" offset="0.820312"/><stop stop-opacity="1" stop-color="rgb(41.08429%, 62.535095%, 35.993958%)" offset="0.828125"/><stop stop-opacity="1" stop-color="rgb(41.316223%, 62.756348%, 36.135864%)" offset="0.835938"/><stop stop-opacity="1" stop-color="rgb(41.546631%, 62.976074%, 36.279297%)" offset="0.84375"/><stop stop-opacity="1" stop-color="rgb(41.778564%, 63.195801%, 36.421204%)" offset="0.851562"/><stop stop-opacity="1" stop-color="rgb(42.010498%, 63.417053%, 36.56311%)" offset="0.859375"/><stop stop-opacity="1" stop-color="rgb(42.242432%, 63.63678%, 36.706543%)" offset="0.867188"/><stop stop-opacity="1" stop-color="rgb(42.474365%, 63.858032%, 36.84845%)" offset="0.875"/><stop stop-opacity="1" stop-color="rgb(42.704773%, 64.077759%, 36.990356%)" offset="0.882812"/><stop stop-opacity="1" stop-color="rgb(42.936707%, 64.299011%, 37.132263%)" offset="0.890625"/><stop stop-opacity="1" stop-color="rgb(43.16864%, 64.518738%, 37.275696%)" offset="0.898438"/><stop stop-opacity="1" stop-color="rgb(43.400574%, 64.73999%, 37.417603%)" offset="0.90625"/><stop stop-opacity="1" stop-color="rgb(43.630981%, 64.959717%, 37.559509%)" offset="0.914062"/><stop stop-opacity="1" stop-color="rgb(43.862915%, 65.180969%, 37.701416%)" offset="0.921875"/><stop stop-opacity="1" stop-color="rgb(44.094849%, 65.400696%, 37.844849%)" offset="0.929688"/><stop stop-opacity="1" stop-color="rgb(44.326782%, 65.621948%, 37.986755%)" offset="0.9375"/><stop stop-opacity="1" stop-color="rgb(44.55719%, 65.841675%, 38.128662%)" offset="0.945312"/><stop stop-opacity="1" stop-color="rgb(44.789124%, 66.061401%, 38.270569%)" offset="0.953125"/><stop stop-opacity="1" stop-color="rgb(45.021057%, 66.282654%, 38.414001%)" offset="0.960938"/><stop stop-opacity="1" stop-color="rgb(45.252991%, 66.50238%, 38.555908%)" offset="0.96875"/><stop stop-opacity="1" stop-color="rgb(45.484924%, 66.723633%, 38.697815%)" offset="0.976562"/><stop stop-opacity="1" stop-color="rgb(45.715332%, 66.943359%, 38.839722%)" offset="0.984375"/><stop stop-opacity="1" stop-color="rgb(45.947266%, 67.164612%, 38.983154%)" offset="0.992188"/><stop stop-opacity="1" stop-color="rgb(46.179199%, 67.384338%, 39.125061%)" offset="1"/></linearGradient><clipPath id="e5623c37e0"><path d="M 100.71875 125.226562 L 178.363281 125.226562 L 178.363281 216.226562 L 100.71875 216.226562 Z M 100.71875 125.226562 " clip-rule="nonzero"/></clipPath><clipPath id="3747bf70b4"><path d="M 138.023438 125.242188 C 137.421875 125.300781 136.835938 125.488281 136.296875 125.792969 L 100.722656 146.332031 L 139.085938 216.226562 C 139.617188 216.148438 140.144531 215.972656 140.617188 215.699219 L 176.296875 195.082031 C 177.398438 194.445312 178.152344 193.363281 178.378906 192.136719 L 139.269531 125.3125 C 138.984375 125.253906 138.695312 125.226562 138.398438 125.226562 C 138.28125 125.226562 138.160156 125.230469 138.042969 125.242188 " clip-rule="nonzero"/></clipPath><linearGradient x1="0.0426927" gradientTransform="matrix(82.499449, 0, 0, 82.520521, 97.199183, 170.728986)" y1="0" x2="0.983822" gradientUnits="userSpaceOnUse" y2="0" id="164b79859b"><stop stop-opacity="1" stop-color="rgb(41.999817%, 74.899292%, 27.799988%)" offset="0"/><stop stop-opacity="1" stop-color="rgb(41.999817%, 74.899292%, 27.799988%)" offset="0.125"/><stop stop-opacity="1" stop-color="rgb(41.999817%, 74.899292%, 27.799988%)" offset="0.15625"/><stop stop-opacity="1" stop-color="rgb(42.045593%, 74.862671%, 27.886963%)" offset="0.164063"/><stop stop-opacity="1" stop-color="rgb(42.190552%, 74.749756%, 28.153992%)" offset="0.171875"/><stop stop-opacity="1" stop-color="rgb(42.385864%, 74.597168%, 28.517151%)" offset="0.179688"/><stop stop-opacity="1" stop-color="rgb(42.581177%, 74.44458%, 28.878784%)" offset="0.1875"/><stop stop-opacity="1" stop-color="rgb(42.776489%, 74.290466%, 29.240417%)" offset="0.195313"/><stop stop-opacity="1" stop-color="rgb(42.971802%, 74.137878%, 29.603577%)" offset="0.203125"/><stop stop-opacity="1" stop-color="rgb(43.167114%, 73.985291%, 29.96521%)" offset="0.210938"/><stop stop-opacity="1" stop-color="rgb(43.362427%, 73.832703%, 30.328369%)" offset="0.21875"/><stop stop-opacity="1" stop-color="rgb(43.557739%, 73.680115%, 30.690002%)" offset="0.226563"/><stop stop-opacity="1" stop-color="rgb(43.753052%, 73.527527%, 31.051636%)" offset="0.234375"/><stop stop-opacity="1" stop-color="rgb(43.948364%, 73.374939%, 31.414795%)" offset="0.242188"/><stop stop-opacity="1" stop-color="rgb(44.143677%, 73.222351%, 31.776428%)" offset="0.25"/><stop stop-opacity="1" stop-color="rgb(44.338989%, 73.069763%, 32.139587%)" offset="0.257813"/><stop stop-opacity="1" stop-color="rgb(44.534302%, 72.917175%, 32.501221%)" offset="0.265625"/><stop stop-opacity="1" stop-color="rgb(44.729614%, 72.764587%, 32.86438%)" offset="0.273438"/><stop stop-opacity="1" stop-color="rgb(44.924927%, 72.612%, 33.226013%)" offset="0.28125"/><stop stop-opacity="1" stop-color="rgb(45.120239%, 72.457886%, 33.587646%)" offset="0.289062"/><stop stop-opacity="1" stop-color="rgb(45.315552%, 72.305298%, 33.950806%)" offset="0.296875"/><stop stop-opacity="1" stop-color="rgb(45.510864%, 72.15271%, 34.312439%)" offset="0.304688"/><stop stop-opacity="1" stop-color="rgb(45.707703%, 72.000122%, 34.675598%)" offset="0.3125"/><stop stop-opacity="1" stop-color="rgb(45.903015%, 71.847534%, 35.037231%)" offset="0.320313"/><stop stop-opacity="1" stop-color="rgb(46.098328%, 71.694946%, 35.398865%)" offset="0.328125"/><stop stop-opacity="1" stop-color="rgb(46.29364%, 71.542358%, 35.762024%)" offset="0.335938"/><stop stop-opacity="1" stop-color="rgb(46.488953%, 71.389771%, 36.123657%)" offset="0.34375"/><stop stop-opacity="1" stop-color="rgb(46.684265%, 71.237183%, 36.486816%)" offset="0.351562"/><stop stop-opacity="1" stop-color="rgb(46.879578%, 71.084595%, 36.84845%)" offset="0.359375"/><stop stop-opacity="1" stop-color="rgb(47.07489%, 70.932007%, 37.210083%)" offset="0.367188"/><stop stop-opacity="1" stop-color="rgb(47.270203%, 70.777893%, 37.573242%)" offset="0.375"/><stop stop-opacity="1" stop-color="rgb(47.410583%, 70.606995%, 37.893677%)" offset="0.382813"/><stop stop-opacity="1" stop-color="rgb(47.384644%, 70.376587%, 38.084412%)" offset="0.390625"/><stop stop-opacity="1" stop-color="rgb(47.244263%, 70.108032%, 38.189697%)" offset="0.398438"/><stop stop-opacity="1" stop-color="rgb(47.105408%, 69.837952%, 38.293457%)" offset="0.40625"/><stop stop-opacity="1" stop-color="rgb(46.966553%, 69.569397%, 38.397217%)" offset="0.414062"/><stop stop-opacity="1" stop-color="rgb(46.827698%, 69.300842%, 38.500977%)" offset="0.421875"/><stop stop-opacity="1" stop-color="rgb(46.688843%, 69.030762%, 38.606262%)" offset="0.429688"/><stop stop-opacity="1" stop-color="rgb(46.549988%, 68.762207%, 38.710022%)" offset="0.4375"/><stop stop-opacity="1" stop-color="rgb(46.411133%, 68.493652%, 38.813782%)" offset="0.445313"/><stop stop-opacity="1" stop-color="rgb(46.272278%, 68.223572%, 38.919067%)" offset="0.453125"/><stop stop-opacity="1" stop-color="rgb(46.133423%, 67.955017%, 39.022827%)" offset="0.460938"/><stop stop-opacity="1" stop-color="rgb(45.994568%, 67.684937%, 39.126587%)" offset="0.46875"/><stop stop-opacity="1" stop-color="rgb(45.825195%, 67.449951%, 39.135742%)" offset="0.476562"/><stop stop-opacity="1" stop-color="rgb(45.619202%, 67.254639%, 39.025879%)" offset="0.484375"/><stop stop-opacity="1" stop-color="rgb(45.405579%, 67.068481%, 38.893127%)" offset="0.492188"/><stop stop-opacity="1" stop-color="rgb(45.191956%, 66.880798%, 38.760376%)" offset="0.5"/><stop stop-opacity="1" stop-color="rgb(44.976807%, 66.694641%, 38.627625%)" offset="0.507813"/><stop stop-opacity="1" stop-color="rgb(44.763184%, 66.506958%, 38.494873%)" offset="0.515625"/><stop stop-opacity="1" stop-color="rgb(44.549561%, 66.320801%, 38.363647%)" offset="0.523438"/><stop stop-opacity="1" stop-color="rgb(44.335938%, 66.133118%, 38.230896%)" offset="0.53125"/><stop stop-opacity="1" stop-color="rgb(44.120789%, 65.94696%, 38.098145%)" offset="0.539062"/><stop stop-opacity="1" stop-color="rgb(43.907166%, 65.759277%, 37.965393%)" offset="0.546875"/><stop stop-opacity="1" stop-color="rgb(43.693542%, 65.57312%, 37.832642%)" offset="0.554688"/><stop stop-opacity="1" stop-color="rgb(43.479919%, 65.386963%, 37.69989%)" offset="0.5625"/><stop stop-opacity="1" stop-color="rgb(43.264771%, 65.19928%, 37.568665%)" offset="0.570312"/><stop stop-opacity="1" stop-color="rgb(43.051147%, 65.013123%, 37.435913%)" offset="0.578125"/><stop stop-opacity="1" stop-color="rgb(42.837524%, 64.825439%, 37.303162%)" offset="0.585938"/><stop stop-opacity="1" stop-color="rgb(42.622375%, 64.639282%, 37.17041%)" offset="0.59375"/><stop stop-opacity="1" stop-color="rgb(42.408752%, 64.451599%, 37.037659%)" offset="0.601562"/><stop stop-opacity="1" stop-color="rgb(42.195129%, 64.265442%, 36.904907%)" offset="0.609375"/><stop stop-opacity="1" stop-color="rgb(41.981506%, 64.077759%, 36.773682%)" offset="0.617187"/><stop stop-opacity="1" stop-color="rgb(41.766357%, 63.891602%, 36.64093%)" offset="0.625"/><stop stop-opacity="1" stop-color="rgb(41.552734%, 63.705444%, 36.508179%)" offset="0.632813"/><stop stop-opacity="1" stop-color="rgb(41.339111%, 63.517761%, 36.375427%)" offset="0.640625"/><stop stop-opacity="1" stop-color="rgb(41.125488%, 63.331604%, 36.242676%)" offset="0.648438"/><stop stop-opacity="1" stop-color="rgb(40.910339%, 63.143921%, 36.11145%)" offset="0.65625"/><stop stop-opacity="1" stop-color="rgb(40.696716%, 62.957764%, 35.978699%)" offset="0.664062"/><stop stop-opacity="1" stop-color="rgb(40.483093%, 62.770081%, 35.845947%)" offset="0.671875"/><stop stop-opacity="1" stop-color="rgb(40.26947%, 62.583923%, 35.713196%)" offset="0.679688"/><stop stop-opacity="1" stop-color="rgb(40.054321%, 62.39624%, 35.580444%)" offset="0.6875"/><stop stop-opacity="1" stop-color="rgb(39.840698%, 62.210083%, 35.447693%)" offset="0.695312"/><stop stop-opacity="1" stop-color="rgb(39.555359%, 61.988831%, 35.258484%)" offset="0.703125"/><stop stop-opacity="1" stop-color="rgb(39.079285%, 61.676025%, 34.912109%)" offset="0.707031"/><stop stop-opacity="1" stop-color="rgb(38.780212%, 61.489868%, 34.689331%)" offset="0.710938"/><stop stop-opacity="1" stop-color="rgb(38.48114%, 61.303711%, 34.466553%)" offset="0.714844"/><stop stop-opacity="1" stop-color="rgb(38.182068%, 61.11908%, 34.243774%)" offset="0.71875"/><stop stop-opacity="1" stop-color="rgb(37.882996%, 60.932922%, 34.020996%)" offset="0.722656"/><stop stop-opacity="1" stop-color="rgb(37.583923%, 60.748291%, 33.798218%)" offset="0.726562"/><stop stop-opacity="1" stop-color="rgb(37.284851%, 60.562134%, 33.575439%)" offset="0.730469"/><stop stop-opacity="1" stop-color="rgb(36.987305%, 60.377502%, 33.352661%)" offset="0.734375"/><stop stop-opacity="1" stop-color="rgb(36.688232%, 60.191345%, 33.129883%)" offset="0.738281"/><stop stop-opacity="1" stop-color="rgb(36.38916%, 60.006714%, 32.907104%)" offset="0.742187"/><stop stop-opacity="1" stop-color="rgb(36.090088%, 59.820557%, 32.684326%)" offset="0.746094"/><stop stop-opacity="1" stop-color="rgb(35.791016%, 59.634399%, 32.461548%)" offset="0.75"/><stop stop-opacity="1" stop-color="rgb(35.491943%, 59.448242%, 32.23877%)" offset="0.753906"/><stop stop-opacity="1" stop-color="rgb(35.192871%, 59.263611%, 32.015991%)" offset="0.757813"/><stop stop-opacity="1" stop-color="rgb(34.893799%, 59.077454%, 31.793213%)" offset="0.761719"/><stop stop-opacity="1" stop-color="rgb(34.596252%, 58.892822%, 31.57196%)" offset="0.765625"/><stop stop-opacity="1" stop-color="rgb(34.29718%, 58.706665%, 31.349182%)" offset="0.769531"/><stop stop-opacity="1" stop-color="rgb(33.998108%, 58.522034%, 31.126404%)" offset="0.773438"/><stop stop-opacity="1" stop-color="rgb(33.699036%, 58.335876%, 30.903625%)" offset="0.777344"/><stop stop-opacity="1" stop-color="rgb(33.399963%, 58.149719%, 30.680847%)" offset="0.78125"/><stop stop-opacity="1" stop-color="rgb(33.100891%, 57.963562%, 30.458069%)" offset="0.785156"/><stop stop-opacity="1" stop-color="rgb(32.803345%, 57.778931%, 30.235291%)" offset="0.789062"/><stop stop-opacity="1" stop-color="rgb(32.504272%, 57.592773%, 30.012512%)" offset="0.792969"/><stop stop-opacity="1" stop-color="rgb(32.2052%, 57.408142%, 29.789734%)" offset="0.796875"/><stop stop-opacity="1" stop-color="rgb(31.906128%, 57.221985%, 29.566956%)" offset="0.800781"/><stop stop-opacity="1" stop-color="rgb(31.607056%, 57.037354%, 29.344177%)" offset="0.804688"/><stop stop-opacity="1" stop-color="rgb(31.307983%, 56.851196%, 29.121399%)" offset="0.808594"/><stop stop-opacity="1" stop-color="rgb(31.008911%, 56.665039%, 28.898621%)" offset="0.8125"/><stop stop-opacity="1" stop-color="rgb(30.709839%, 56.478882%, 28.675842%)" offset="0.816406"/><stop stop-opacity="1" stop-color="rgb(30.412292%, 56.29425%, 28.453064%)" offset="0.820312"/><stop stop-opacity="1" stop-color="rgb(30.11322%, 56.108093%, 28.230286%)" offset="0.824219"/><stop stop-opacity="1" stop-color="rgb(29.814148%, 55.923462%, 28.007507%)" offset="0.828125"/><stop stop-opacity="1" stop-color="rgb(29.515076%, 55.737305%, 27.784729%)" offset="0.832031"/><stop stop-opacity="1" stop-color="rgb(29.216003%, 55.552673%, 27.563477%)" offset="0.835938"/><stop stop-opacity="1" stop-color="rgb(28.916931%, 55.366516%, 27.340698%)" offset="0.839844"/><stop stop-opacity="1" stop-color="rgb(28.617859%, 55.180359%, 27.11792%)" offset="0.84375"/><stop stop-opacity="1" stop-color="rgb(28.318787%, 54.994202%, 26.895142%)" offset="0.847656"/><stop stop-opacity="1" stop-color="rgb(28.02124%, 54.80957%, 26.672363%)" offset="0.851562"/><stop stop-opacity="1" stop-color="rgb(27.722168%, 54.623413%, 26.449585%)" offset="0.855469"/><stop stop-opacity="1" stop-color="rgb(27.423096%, 54.438782%, 26.226807%)" offset="0.859375"/><stop stop-opacity="1" stop-color="rgb(27.124023%, 54.252625%, 26.004028%)" offset="0.863281"/><stop stop-opacity="1" stop-color="rgb(26.824951%, 54.067993%, 25.78125%)" offset="0.867187"/><stop stop-opacity="1" stop-color="rgb(26.525879%, 53.881836%, 25.558472%)" offset="0.871094"/><stop stop-opacity="1" stop-color="rgb(26.226807%, 53.697205%, 25.335693%)" offset="0.875"/><stop stop-opacity="1" stop-color="rgb(25.927734%, 53.511047%, 25.112915%)" offset="0.878906"/><stop stop-opacity="1" stop-color="rgb(25.630188%, 53.32489%, 24.890137%)" offset="0.882813"/><stop stop-opacity="1" stop-color="rgb(25.331116%, 53.138733%, 24.667358%)" offset="0.886719"/><stop stop-opacity="1" stop-color="rgb(25.032043%, 52.954102%, 24.44458%)" offset="0.890625"/><stop stop-opacity="1" stop-color="rgb(24.732971%, 52.767944%, 24.221802%)" offset="0.894531"/><stop stop-opacity="1" stop-color="rgb(24.433899%, 52.583313%, 24.000549%)" offset="0.898438"/><stop stop-opacity="1" stop-color="rgb(24.36676%, 52.540588%, 23.950195%)" offset="0.90625"/><stop stop-opacity="1" stop-color="rgb(24.299622%, 52.49939%, 23.899841%)" offset="0.9375"/><stop stop-opacity="1" stop-color="rgb(24.299622%, 52.49939%, 23.899841%)" offset="1"/></linearGradient></defs><g clip-path="url(#ea5041a9d1)"><path fill="#689f63" d="M 185.351562 302.277344 C 184.113281 302.277344 182.886719 301.953125 181.800781 301.328125 L 170.507812 294.640625 C 168.820312 293.695312 169.644531 293.363281 170.199219 293.167969 C 172.449219 292.382812 172.90625 292.203125 175.308594 290.839844 C 175.558594 290.695312 175.890625 290.746094 176.148438 290.898438 L 184.824219 296.050781 C 185.136719 296.21875 185.582031 296.21875 185.875 296.050781 L 219.707031 276.515625 C 220.019531 276.335938 220.222656 275.972656 220.222656 275.601562 L 220.222656 236.550781 C 220.222656 236.160156 220.019531 235.8125 219.699219 235.617188 L 185.878906 216.101562 C 185.566406 215.914062 185.152344 215.914062 184.839844 216.101562 L 151.027344 235.617188 C 150.699219 235.804688 150.488281 236.167969 150.488281 236.542969 L 150.488281 275.59375 C 150.488281 275.964844 150.691406 276.320312 151.015625 276.5 L 160.28125 281.851562 C 165.308594 284.367188 168.382812 281.402344 168.382812 278.421875 L 168.382812 239.878906 C 168.382812 239.328125 168.816406 238.90625 169.367188 238.90625 L 173.652344 238.90625 C 174.183594 238.90625 174.625 239.328125 174.625 239.878906 L 174.625 278.4375 C 174.625 285.148438 170.96875 289 164.605469 289 C 162.652344 289 161.109375 289 156.808594 286.882812 L 147.933594 281.765625 C 145.738281 280.496094 144.382812 278.125 144.382812 275.59375 L 144.382812 236.542969 C 144.382812 234 145.738281 231.628906 147.933594 230.375 L 181.800781 210.832031 C 183.941406 209.621094 186.785156 209.621094 188.914062 210.832031 L 222.738281 230.382812 C 224.921875 231.644531 226.285156 234.007812 226.285156 236.550781 L 226.285156 275.601562 C 226.285156 278.132812 224.921875 280.496094 222.738281 281.765625 L 188.914062 301.308594 C 187.828125 301.9375 186.601562 302.257812 185.347656 302.257812 " fill-opacity="1" fill-rule="nonzero"/></g><path fill="#689f63" d="M 195.800781 275.367188 C 180.996094 275.367188 177.894531 268.570312 177.894531 262.871094 C 177.894531 262.328125 178.332031 261.894531 178.875 261.894531 L 183.242188 261.894531 C 183.726562 261.894531 184.132812 262.246094 184.210938 262.722656 C 184.871094 267.179688 186.835938 269.425781 195.785156 269.425781 C 202.917969 269.425781 205.949219 267.8125 205.949219 264.03125 C 205.949219 261.855469 205.085938 260.234375 194.007812 259.152344 C 184.742188 258.238281 179.019531 256.195312 179.019531 248.785156 C 179.019531 241.957031 184.777344 237.890625 194.421875 237.890625 C 205.253906 237.890625 210.621094 241.652344 211.300781 249.730469 C 211.324219 250.011719 211.222656 250.28125 211.039062 250.484375 C 210.851562 250.679688 210.589844 250.800781 210.316406 250.800781 L 205.921875 250.800781 C 205.464844 250.800781 205.066406 250.476562 204.972656 250.039062 C 203.914062 245.351562 201.359375 243.855469 194.40625 243.855469 C 186.621094 243.855469 185.714844 246.5625 185.714844 248.597656 C 185.714844 251.0625 186.785156 251.78125 197.285156 253.171875 C 207.683594 254.550781 212.621094 256.5 212.621094 263.8125 C 212.621094 271.179688 206.472656 275.40625 195.75 275.40625 M 236.960938 233.992188 L 238.09375 233.992188 C 239.027344 233.992188 239.203125 233.339844 239.203125 232.960938 C 239.203125 231.960938 238.519531 231.960938 238.136719 231.960938 L 236.96875 231.960938 Z M 235.582031 230.792969 L 238.09375 230.792969 C 238.960938 230.792969 240.652344 230.792969 240.652344 232.722656 C 240.652344 234.070312 239.789062 234.347656 239.273438 234.519531 C 240.28125 234.585938 240.347656 235.246094 240.484375 236.179688 C 240.550781 236.761719 240.660156 237.773438 240.863281 238.109375 L 239.316406 238.109375 C 239.273438 237.773438 239.035156 235.90625 239.035156 235.804688 C 238.933594 235.390625 238.789062 235.1875 238.273438 235.1875 L 236.996094 235.1875 L 236.996094 238.117188 L 235.582031 238.117188 Z M 232.558594 234.433594 C 232.558594 237.464844 235.003906 239.921875 238.011719 239.921875 C 241.042969 239.921875 243.488281 237.414062 243.488281 234.433594 C 243.488281 231.394531 241.007812 228.980469 238.003906 228.980469 C 235.039062 228.980469 232.546875 231.359375 232.546875 234.425781 M 244.539062 234.449219 C 244.539062 238.042969 241.601562 240.972656 238.019531 240.972656 C 234.460938 240.972656 231.5 238.078125 231.5 234.449219 C 231.5 230.757812 234.53125 227.929688 238.019531 227.929688 C 241.535156 227.929688 244.53125 230.765625 244.53125 234.449219 " fill-opacity="1" fill-rule="nonzero"/><g clip-path="url(#111d7db2df)"><path fill="#333333" d="M 80.582031 149.480469 C 80.582031 147.921875 79.761719 146.488281 78.417969 145.714844 L 42.546875 125.070312 C 41.941406 124.714844 41.261719 124.527344 40.574219 124.503906 L 40.203125 124.503906 C 39.515625 124.527344 38.839844 124.714844 38.222656 125.070312 L 2.355469 145.714844 C 1.019531 146.492188 0.183594 147.925781 0.183594 149.484375 L 0.265625 205.085938 C 0.265625 205.855469 0.660156 206.578125 1.339844 206.957031 C 2 207.363281 2.828125 207.363281 3.492188 206.957031 L 24.816406 194.742188 C 26.160156 193.941406 26.984375 192.523438 26.984375 190.980469 L 26.984375 165.007812 C 26.984375 163.457031 27.804688 162.023438 29.144531 161.253906 L 38.226562 156.023438 C 38.898438 155.632812 39.640625 155.441406 40.394531 155.441406 C 41.132812 155.441406 41.890625 155.632812 42.546875 156.023438 L 51.621094 161.25 C 52.964844 162.023438 53.789062 163.453125 53.789062 165.003906 L 53.789062 190.976562 C 53.789062 192.519531 54.621094 193.941406 55.960938 194.738281 L 77.273438 206.945312 C 77.941406 207.34375 78.773438 207.34375 79.441406 206.945312 C 80.097656 206.5625 80.515625 205.84375 80.515625 205.074219 Z M 249.84375 178.429688 C 249.84375 178.816406 249.640625 179.175781 249.304688 179.367188 L 236.984375 186.46875 C 236.648438 186.660156 236.234375 186.660156 235.902344 186.46875 L 223.578125 179.367188 C 223.242188 179.171875 223.039062 178.816406 223.039062 178.429688 L 223.039062 164.203125 C 223.039062 163.8125 223.242188 163.457031 223.570312 163.261719 L 235.886719 156.144531 C 236.222656 155.949219 236.640625 155.949219 236.976562 156.144531 L 249.300781 163.261719 C 249.636719 163.457031 249.839844 163.8125 249.839844 164.203125 Z M 253.175781 73.050781 C 252.5 72.675781 251.683594 72.6875 251.019531 73.074219 C 250.359375 73.460938 249.949219 74.175781 249.949219 74.945312 L 249.949219 130.003906 C 249.949219 130.546875 249.664062 131.046875 249.195312 131.316406 C 248.726562 131.589844 248.148438 131.589844 247.675781 131.316406 L 238.691406 126.140625 C 237.355469 125.367188 235.707031 125.367188 234.363281 126.140625 L 198.480469 146.855469 C 197.140625 147.625 196.3125 149.058594 196.3125 150.601562 L 196.3125 192.039062 C 196.3125 193.589844 197.140625 195.011719 198.480469 195.792969 L 234.363281 216.519531 C 235.703125 217.289062 237.351562 217.289062 238.695312 216.519531 L 274.578125 195.78125 C 275.917969 195.003906 276.746094 193.582031 276.746094 192.03125 L 276.746094 88.753906 C 276.746094 87.183594 275.890625 85.734375 274.519531 84.96875 Z M 372.660156 163.828125 C 373.992188 163.050781 374.816406 161.621094 374.816406 160.082031 L 374.816406 150.039062 C 374.816406 148.492188 373.992188 147.066406 372.65625 146.289062 L 337.003906 125.585938 C 335.65625 124.808594 334.007812 124.808594 332.660156 125.585938 L 296.785156 146.296875 C 295.441406 147.078125 294.617188 148.5 294.617188 150.050781 L 294.617188 191.472656 C 294.617188 193.03125 295.457031 194.472656 296.804688 195.242188 L 332.449219 215.5625 C 333.761719 216.316406 335.371094 216.328125 336.699219 215.589844 L 358.261719 203.601562 C 358.9375 203.222656 359.371094 202.503906 359.371094 201.722656 C 359.371094 200.945312 358.957031 200.214844 358.277344 199.832031 L 322.183594 179.113281 C 321.507812 178.734375 321.09375 178.011719 321.09375 177.242188 L 321.09375 164.246094 C 321.09375 163.472656 321.5 162.757812 322.175781 162.371094 L 333.40625 155.890625 C 334.074219 155.5 334.894531 155.5 335.566406 155.890625 L 346.804688 162.371094 C 347.472656 162.753906 347.886719 163.472656 347.886719 164.242188 L 347.886719 174.457031 C 347.886719 175.230469 348.300781 175.949219 348.972656 176.339844 C 349.640625 176.71875 350.46875 176.71875 351.140625 176.332031 Z M 372.660156 163.828125 " fill-opacity="1" fill-rule="evenodd"/></g><path fill="#689f63" d="M 334.308594 161.890625 C 334.5625 161.738281 334.878906 161.738281 335.136719 161.890625 L 342.023438 165.863281 C 342.28125 166.011719 342.4375 166.285156 342.4375 166.582031 L 342.4375 174.535156 C 342.4375 174.832031 342.28125 175.105469 342.023438 175.253906 L 335.136719 179.230469 C 334.878906 179.378906 334.5625 179.378906 334.308594 179.230469 L 327.425781 175.253906 C 327.164062 175.105469 327.003906 174.832031 327.003906 174.535156 L 327.003906 166.582031 C 327.003906 166.285156 327.15625 166.011719 327.417969 165.863281 Z M 334.308594 161.890625 " fill-opacity="1" fill-rule="evenodd"/><g clip-path="url(#4d80270b3b)"><g clip-path="url(#fba8224ccc)"><g clip-path="url(#0b1b1fb4a5)"><path fill="url(#4224a51429)" d="M 214.492188 142.894531 L 113.957031 93.601562 L 62.40625 198.789062 L 162.941406 248.082031 Z M 214.492188 142.894531 " fill-rule="nonzero"/></g></g></g><g clip-path="url(#8ff35b6b9c)"><g clip-path="url(#2a6b1ed551)"><g clip-path="url(#e7acffeb8b)"><path fill="url(#a6dec54a81)" d="M 55.871094 157.46875 L 126.871094 253.582031 L 220.757812 184.191406 L 149.761719 88.082031 Z M 55.871094 157.46875 " fill-rule="nonzero"/></g></g></g><g clip-path="url(#e5623c37e0)"><g clip-path="url(#3747bf70b4)"><path fill="url(#164b79859b)" d="M 100.722656 125.226562 L 100.722656 216.226562 L 178.363281 216.226562 L 178.363281 125.226562 Z M 100.722656 125.226562 " fill-rule="nonzero"/></g></g></svg>