<svg xmlns="http://www.w3.org/2000/svg" xmlns:xlink="http://www.w3.org/1999/xlink" width="500" zoomAndPan="magnify" viewBox="0 0 375 374.999991" height="500" preserveAspectRatio="xMidYMid meet" version="1.0"><defs><g/><clipPath id="f06514086e"><path d="M 7.359375 7.359375 L 367.359375 7.359375 L 367.359375 367.359375 L 7.359375 367.359375 Z M 7.359375 7.359375 " clip-rule="nonzero"/></clipPath></defs><g clip-path="url(#f06514086e)"><path fill="#111111" d="M 295.359375 7.359375 L 79.359375 7.359375 C 39.757812 7.359375 7.359375 39.757812 7.359375 79.359375 L 7.359375 295.359375 C 7.359375 334.957031 39.757812 367.359375 79.359375 367.359375 L 295.359375 367.359375 C 334.957031 367.359375 367.359375 334.957031 367.359375 295.359375 L 367.359375 79.359375 C 367.359375 39.757812 334.957031 7.359375 295.359375 7.359375 Z M 295.359375 7.359375 " fill-opacity="1" fill-rule="nonzero"/></g><path fill="#ffffff" d="M 268.132812 292.582031 L 106.582031 292.582031 C 102.082031 292.582031 98.332031 296.257812 98.332031 300.832031 L 98.332031 302.558594 C 98.332031 307.058594 102.007812 310.808594 106.582031 310.808594 L 268.132812 310.808594 C 272.632812 310.808594 276.382812 307.132812 276.382812 302.558594 L 276.382812 300.832031 C 276.308594 296.332031 272.632812 292.582031 268.132812 292.582031 Z M 268.132812 292.582031 " fill-opacity="1" fill-rule="nonzero"/><path fill="#ffffff" d="M 261.683594 191.558594 C 261.683594 185.78125 256.957031 181.058594 251.183594 181.058594 L 123.53125 181.058594 C 117.757812 181.058594 113.03125 185.78125 113.03125 191.558594 L 113.03125 286.734375 L 261.757812 286.734375 L 261.757812 191.558594 Z M 166.28125 244.734375 C 167.40625 245.859375 167.40625 247.734375 166.28125 248.933594 C 165.683594 249.53125 164.933594 249.832031 164.183594 249.832031 C 163.433594 249.832031 162.683594 249.53125 162.082031 248.933594 L 146.632812 233.484375 C 145.507812 232.359375 145.507812 230.484375 146.632812 229.28125 L 162.082031 213.832031 C 163.207031 212.707031 165.082031 212.707031 166.28125 213.832031 C 167.40625 214.957031 167.40625 216.832031 166.28125 218.03125 L 152.933594 231.382812 Z M 199.359375 202.734375 L 181.058594 266.558594 C 180.683594 267.832031 179.484375 268.734375 178.207031 268.734375 C 177.90625 268.734375 177.683594 268.65625 177.382812 268.582031 C 175.808594 268.132812 174.90625 266.484375 175.359375 264.90625 L 193.65625 201.082031 C 194.109375 199.507812 195.757812 198.609375 197.332031 199.058594 C 198.90625 199.582031 199.808594 201.15625 199.359375 202.734375 Z M 228.082031 233.484375 L 212.632812 248.933594 C 212.03125 249.53125 211.28125 249.832031 210.53125 249.832031 C 209.78125 249.832031 209.03125 249.53125 208.433594 248.933594 C 207.308594 247.808594 207.308594 245.933594 208.433594 244.734375 L 221.78125 231.382812 L 208.433594 218.03125 C 207.308594 216.90625 207.308594 215.03125 208.433594 213.832031 C 209.558594 212.707031 211.433594 212.707031 212.632812 213.832031 L 228.082031 229.28125 C 228.609375 229.808594 228.984375 230.558594 228.984375 231.382812 C 228.90625 232.132812 228.609375 232.882812 228.082031 233.484375 Z M 228.082031 233.484375 " fill-opacity="1" fill-rule="nonzero"/><path fill="#ffffff" d="M 190.207031 156.757812 C 210.683594 156.757812 227.332031 140.109375 227.332031 119.632812 L 227.332031 100.28125 C 221.933594 102.308594 216.90625 103.132812 212.109375 103.132812 C 204.007812 103.132812 196.65625 100.882812 189.457031 98.707031 C 177.832031 95.183594 166.808594 91.882812 153.007812 97.734375 L 153.007812 119.632812 C 153.082031 140.109375 169.734375 156.757812 190.207031 156.757812 Z M 190.207031 156.757812 " fill-opacity="1" fill-rule="nonzero"/><path fill="#ffffff" d="M 171.007812 158.183594 L 171.007812 175.132812 L 209.40625 175.132812 L 209.40625 158.183594 C 203.632812 161.109375 197.109375 162.683594 190.207031 162.683594 C 183.308594 162.683594 176.859375 161.03125 171.007812 158.183594 Z M 171.007812 158.183594 " fill-opacity="1" fill-rule="nonzero"/><path fill="#ffffff" d="M 191.183594 93.007812 C 202.734375 96.53125 213.683594 99.832031 227.332031 93.90625 L 227.332031 90.457031 C 227.332031 75.832031 215.40625 63.984375 200.859375 63.984375 L 179.558594 63.984375 C 164.933594 63.984375 153.082031 75.90625 153.082031 90.457031 L 153.082031 91.359375 C 167.78125 85.882812 179.632812 89.484375 191.183594 93.007812 Z M 191.183594 93.007812 " fill-opacity="1" fill-rule="nonzero"/><path fill="#ffffff" d="M 279.457031 208.957031 L 267.609375 208.957031 L 267.609375 286.65625 L 269.332031 286.65625 C 282.308594 286.65625 292.882812 276.082031 292.882812 263.109375 L 292.882812 222.382812 C 292.957031 215.03125 286.882812 208.957031 279.457031 208.957031 Z M 279.457031 208.957031 " fill-opacity="1" fill-rule="nonzero"/><path fill="#ffffff" d="M 107.109375 286.65625 L 107.109375 208.957031 L 95.257812 208.957031 C 87.832031 208.957031 81.832031 215.03125 81.832031 222.382812 L 81.832031 263.109375 C 81.832031 276.082031 92.40625 286.65625 105.382812 286.65625 Z M 107.109375 286.65625 " fill-opacity="1" fill-rule="nonzero"/><g fill="#111111" fill-opacity="1"><g transform="translate(287.63729, 111.737702)"><g><path d="M 18.359375 -6.484375 C 18.359375 -4.242188 17.578125 -2.535156 16.015625 -1.359375 C 14.460938 -0.191406 12.140625 0.390625 9.046875 0.390625 C 7.453125 0.390625 6.09375 0.28125 4.96875 0.0625 C 3.851562 -0.144531 2.8125 -0.457031 1.84375 -0.875 L 1.84375 -5.796875 C 2.945312 -5.273438 4.191406 -4.835938 5.578125 -4.484375 C 6.960938 -4.140625 8.179688 -3.96875 9.234375 -3.96875 C 11.398438 -3.96875 12.484375 -4.59375 12.484375 -5.84375 C 12.484375 -6.3125 12.335938 -6.691406 12.046875 -6.984375 C 11.765625 -7.273438 11.269531 -7.601562 10.5625 -7.96875 C 9.863281 -8.34375 8.925781 -8.78125 7.75 -9.28125 C 6.070312 -9.976562 4.835938 -10.625 4.046875 -11.21875 C 3.265625 -11.820312 2.691406 -12.507812 2.328125 -13.28125 C 1.972656 -14.0625 1.796875 -15.019531 1.796875 -16.15625 C 1.796875 -18.09375 2.546875 -19.59375 4.046875 -20.65625 C 5.554688 -21.71875 7.691406 -22.25 10.453125 -22.25 C 13.078125 -22.25 15.632812 -21.675781 18.125 -20.53125 L 16.328125 -16.234375 C 15.234375 -16.703125 14.210938 -17.082031 13.265625 -17.375 C 12.316406 -17.675781 11.347656 -17.828125 10.359375 -17.828125 C 8.597656 -17.828125 7.71875 -17.351562 7.71875 -16.40625 C 7.71875 -15.875 8 -15.410156 8.5625 -15.015625 C 9.132812 -14.628906 10.375 -14.050781 12.28125 -13.28125 C 13.988281 -12.59375 15.238281 -11.945312 16.03125 -11.34375 C 16.832031 -10.75 17.421875 -10.0625 17.796875 -9.28125 C 18.171875 -8.5 18.359375 -7.566406 18.359375 -6.484375 Z M 18.359375 -6.484375 "/></g></g></g></svg>